<svg width="48" height="48" viewBox="0 0 48 48" fill="none" xmlns="http://www.w3.org/2000/svg">
<g id="Insta">
<path id="Vector" d="M24 16.791C22.0904 16.791 20.2591 17.5496 18.9088 18.8999C17.5586 20.2501 16.8 22.0815 16.8 23.991C16.8 25.9006 17.5586 27.7319 18.9088 29.0822C20.2591 30.4325 22.0904 31.191 24 31.191C25.9096 31.191 27.7409 30.4325 29.0912 29.0822C30.4414 27.7319 31.2 25.9006 31.2 23.991C31.2 22.0815 30.4414 20.2501 29.0912 18.8999C27.7409 17.5496 25.9096 16.791 24 16.791ZM24 11.991C27.1826 11.991 30.2348 13.2553 32.4853 15.5057C34.7357 17.7562 36 20.8084 36 23.991C36 27.1736 34.7357 30.2259 32.4853 32.4763C30.2348 34.7267 27.1826 35.991 24 35.991C20.8174 35.991 17.7652 34.7267 15.5147 32.4763C13.2643 30.2259 12 27.1736 12 23.991C12 20.8084 13.2643 17.7562 15.5147 15.5057C17.7652 13.2553 20.8174 11.991 24 11.991ZM39.6 11.391C39.6 12.1867 39.2839 12.9497 38.7213 13.5123C38.1587 14.075 37.3957 14.391 36.6 14.391C35.8044 14.391 35.0413 14.075 34.4787 13.5123C33.9161 12.9497 33.6 12.1867 33.6 11.391C33.6 10.5954 33.9161 9.83232 34.4787 9.26971C35.0413 8.7071 35.8044 8.39103 36.6 8.39103C37.3957 8.39103 38.1587 8.7071 38.7213 9.26971C39.2839 9.83232 39.6 10.5954 39.6 11.391ZM24 4.79103C18.0624 4.79103 17.0928 4.80783 14.3304 4.93023C12.4488 5.01903 11.1864 5.27103 10.0152 5.72703C8.9736 6.13023 8.2224 6.61263 7.4232 7.41423C6.67202 8.13999 6.09445 9.02603 5.7336 10.0062C5.2776 11.1822 5.0256 12.4422 4.9392 14.3214C4.8144 16.971 4.8 17.8974 4.8 23.991C4.8 29.9286 4.8168 30.8982 4.9392 33.6606C5.028 35.5398 5.28 36.8046 5.7336 37.9734C6.1416 39.0174 6.6216 39.7686 7.4184 40.5654C8.2272 41.3718 8.9784 41.8542 10.0104 42.2526C11.196 42.711 12.4584 42.9654 14.3304 43.0518C16.98 43.1766 17.9064 43.191 24 43.191C29.9376 43.191 30.9072 43.1742 33.6696 43.0518C35.5464 42.963 36.8112 42.711 37.9824 42.2574C39.0216 41.8518 39.7776 41.3694 40.5744 40.5726C41.3832 39.7638 41.8656 39.0126 42.264 37.9806C42.72 36.7974 42.9744 35.5326 43.0608 33.6606C43.1856 31.011 43.2 30.0846 43.2 23.991C43.2 18.0534 43.1832 17.0838 43.0608 14.3214C42.972 12.4446 42.72 11.1774 42.264 10.0062C41.9023 9.02703 41.3258 8.14133 40.5768 7.41423C39.8514 6.66266 38.9652 6.08503 37.9848 5.72463C36.8088 5.26863 35.5464 5.01663 33.6696 4.93023C31.02 4.80543 30.0936 4.79103 24 4.79103ZM24 -0.00897217C30.5208 -0.00897217 31.3344 0.0150277 33.8928 0.135028C36.4488 0.255028 38.1888 0.655828 39.72 1.25103C41.304 1.86063 42.6384 2.68623 43.9728 4.01823C45.1932 5.21798 46.1375 6.66924 46.74 8.27103C47.3328 9.79983 47.736 11.5422 47.856 14.0982C47.9688 16.6566 48 17.4702 48 23.991C48 30.5118 47.976 31.3254 47.856 33.8838C47.736 36.4398 47.3328 38.1798 46.74 39.711C46.1392 41.3137 45.1947 42.7653 43.9728 43.9638C42.7727 45.1838 41.3215 46.128 39.72 46.731C38.1912 47.3238 36.4488 47.727 33.8928 47.847C31.3344 47.9598 30.5208 47.991 24 47.991C17.4792 47.991 16.6656 47.967 14.1072 47.847C11.5512 47.727 9.8112 47.3238 8.28 46.731C6.67758 46.1298 5.22607 45.1853 4.0272 43.9638C2.80658 42.7643 1.86224 41.313 1.26 39.711C0.6648 38.1822 0.264 36.4398 0.144 33.8838C0.0311999 31.3254 0 30.5118 0 23.991C0 17.4702 0.0239999 16.6566 0.144 14.0982C0.264 11.5398 0.6648 9.80223 1.26 8.27103C1.86057 6.66826 2.80513 5.2166 4.0272 4.01823C5.22641 2.79718 6.67783 1.85278 8.28 1.25103C9.8112 0.655828 11.5488 0.255028 14.1072 0.135028C16.6656 0.0222277 17.4792 -0.00897217 24 -0.00897217Z" fill="#120303"/>
</g>
</svg>
